<mxfile host="app.diagrams.net" modified="2023-06-06T02:51:48.376Z" agent="Mozilla/5.0 (Macintosh; Intel Mac OS X 10_15_7) AppleWebKit/537.36 (KHTML, like Gecko) Chrome/113.0.0.0 Safari/537.36" etag="PAovp_jp15qDxl0hqfrv" version="21.2.9" type="github">
  <diagram id="6a731a19-8d31-9384-78a2-239565b7b9f0" name="Page-1">
    <mxGraphModel dx="1272" dy="2475" grid="1" gridSize="10" guides="1" tooltips="1" connect="1" arrows="1" fold="1" page="1" pageScale="1" pageWidth="1169" pageHeight="827" background="none" math="0" shadow="0">
      <root>
        <mxCell id="0" />
        <mxCell id="1" parent="0" />
        <mxCell id="h1fyJHc6jPcogjjUTnC6-63" style="edgeStyle=orthogonalEdgeStyle;rounded=0;orthogonalLoop=1;jettySize=auto;html=1;exitX=0.5;exitY=1;exitDx=0;exitDy=0;entryX=0.5;entryY=0;entryDx=0;entryDy=0;" edge="1" parent="1" source="h1fyJHc6jPcogjjUTnC6-1" target="h1fyJHc6jPcogjjUTnC6-61">
          <mxGeometry relative="1" as="geometry" />
        </mxCell>
        <mxCell id="h1fyJHc6jPcogjjUTnC6-1" value="&lt;font style=&quot;font-size: 10px;&quot;&gt;Start&lt;/font&gt;" style="ellipse;whiteSpace=wrap;html=1;" vertex="1" parent="1">
          <mxGeometry x="280" y="-920" width="120" height="60" as="geometry" />
        </mxCell>
        <mxCell id="h1fyJHc6jPcogjjUTnC6-43" style="edgeStyle=orthogonalEdgeStyle;rounded=0;orthogonalLoop=1;jettySize=auto;html=1;entryX=0.5;entryY=0;entryDx=0;entryDy=0;" edge="1" parent="1" source="h1fyJHc6jPcogjjUTnC6-35" target="h1fyJHc6jPcogjjUTnC6-36">
          <mxGeometry relative="1" as="geometry" />
        </mxCell>
        <mxCell id="h1fyJHc6jPcogjjUTnC6-35" value="&lt;font style=&quot;font-size: 10px;&quot;&gt;Administrator Data&lt;/font&gt;" style="shape=cylinder3;whiteSpace=wrap;html=1;boundedLbl=1;backgroundOutline=1;size=15;" vertex="1" parent="1">
          <mxGeometry x="310" y="-790" width="60" height="80" as="geometry" />
        </mxCell>
        <mxCell id="h1fyJHc6jPcogjjUTnC6-44" style="edgeStyle=orthogonalEdgeStyle;rounded=0;orthogonalLoop=1;jettySize=auto;html=1;exitX=0;exitY=0.5;exitDx=0;exitDy=0;entryX=1;entryY=0.5;entryDx=0;entryDy=0;" edge="1" parent="1" source="h1fyJHc6jPcogjjUTnC6-36" target="h1fyJHc6jPcogjjUTnC6-37">
          <mxGeometry relative="1" as="geometry" />
        </mxCell>
        <mxCell id="h1fyJHc6jPcogjjUTnC6-45" style="edgeStyle=orthogonalEdgeStyle;rounded=0;orthogonalLoop=1;jettySize=auto;html=1;" edge="1" parent="1" source="h1fyJHc6jPcogjjUTnC6-36" target="h1fyJHc6jPcogjjUTnC6-38">
          <mxGeometry relative="1" as="geometry" />
        </mxCell>
        <mxCell id="h1fyJHc6jPcogjjUTnC6-36" value="&lt;font style=&quot;font-size: 10px;&quot;&gt;Is Administrator Super Administrator ?&lt;/font&gt;" style="rhombus;whiteSpace=wrap;html=1;" vertex="1" parent="1">
          <mxGeometry x="300" y="-680" width="80" height="80" as="geometry" />
        </mxCell>
        <mxCell id="h1fyJHc6jPcogjjUTnC6-55" style="edgeStyle=orthogonalEdgeStyle;rounded=0;orthogonalLoop=1;jettySize=auto;html=1;exitX=0.5;exitY=1;exitDx=0;exitDy=0;entryX=0.5;entryY=0;entryDx=0;entryDy=0;" edge="1" parent="1" source="h1fyJHc6jPcogjjUTnC6-37" target="h1fyJHc6jPcogjjUTnC6-54">
          <mxGeometry relative="1" as="geometry" />
        </mxCell>
        <mxCell id="h1fyJHc6jPcogjjUTnC6-37" value="Allow Access" style="rounded=0;whiteSpace=wrap;html=1;" vertex="1" parent="1">
          <mxGeometry x="120" y="-670" width="120" height="60" as="geometry" />
        </mxCell>
        <mxCell id="h1fyJHc6jPcogjjUTnC6-102" style="edgeStyle=orthogonalEdgeStyle;rounded=0;orthogonalLoop=1;jettySize=auto;html=1;exitX=0.5;exitY=1;exitDx=0;exitDy=0;entryX=0.5;entryY=0;entryDx=0;entryDy=0;" edge="1" parent="1" source="h1fyJHc6jPcogjjUTnC6-38" target="h1fyJHc6jPcogjjUTnC6-101">
          <mxGeometry relative="1" as="geometry" />
        </mxCell>
        <mxCell id="h1fyJHc6jPcogjjUTnC6-121" style="edgeStyle=orthogonalEdgeStyle;rounded=0;orthogonalLoop=1;jettySize=auto;html=1;exitX=0.5;exitY=0;exitDx=0;exitDy=0;entryX=0.5;entryY=1;entryDx=0;entryDy=0;" edge="1" parent="1" source="h1fyJHc6jPcogjjUTnC6-38" target="h1fyJHc6jPcogjjUTnC6-59">
          <mxGeometry relative="1" as="geometry" />
        </mxCell>
        <mxCell id="h1fyJHc6jPcogjjUTnC6-38" value="&lt;font style=&quot;font-size: 10px;&quot;&gt;Is Administrator Technologist ?&lt;/font&gt;" style="rhombus;whiteSpace=wrap;html=1;" vertex="1" parent="1">
          <mxGeometry x="480" y="-680" width="80" height="80" as="geometry" />
        </mxCell>
        <mxCell id="h1fyJHc6jPcogjjUTnC6-98" style="edgeStyle=orthogonalEdgeStyle;rounded=0;orthogonalLoop=1;jettySize=auto;html=1;exitX=0.5;exitY=1;exitDx=0;exitDy=0;entryX=0.5;entryY=0;entryDx=0;entryDy=0;" edge="1" parent="1" source="h1fyJHc6jPcogjjUTnC6-39" target="h1fyJHc6jPcogjjUTnC6-97">
          <mxGeometry relative="1" as="geometry" />
        </mxCell>
        <mxCell id="h1fyJHc6jPcogjjUTnC6-114" style="edgeStyle=orthogonalEdgeStyle;rounded=0;orthogonalLoop=1;jettySize=auto;html=1;exitX=1;exitY=0.5;exitDx=0;exitDy=0;entryX=0.5;entryY=1;entryDx=0;entryDy=0;" edge="1" parent="1" source="h1fyJHc6jPcogjjUTnC6-39" target="h1fyJHc6jPcogjjUTnC6-105">
          <mxGeometry relative="1" as="geometry" />
        </mxCell>
        <mxCell id="h1fyJHc6jPcogjjUTnC6-39" value="&lt;font style=&quot;font-size: 10px;&quot;&gt;Is Technologist accessing their Department ?&lt;/font&gt;" style="rhombus;whiteSpace=wrap;html=1;" vertex="1" parent="1">
          <mxGeometry x="470" y="-413" width="80" height="80" as="geometry" />
        </mxCell>
        <mxCell id="h1fyJHc6jPcogjjUTnC6-74" style="edgeStyle=orthogonalEdgeStyle;rounded=0;orthogonalLoop=1;jettySize=auto;html=1;exitX=0.5;exitY=1;exitDx=0;exitDy=0;entryX=0.5;entryY=0;entryDx=0;entryDy=0;" edge="1" parent="1" source="h1fyJHc6jPcogjjUTnC6-47" target="h1fyJHc6jPcogjjUTnC6-73">
          <mxGeometry relative="1" as="geometry" />
        </mxCell>
        <mxCell id="h1fyJHc6jPcogjjUTnC6-47" value="View Laboratories" style="shape=parallelogram;perimeter=parallelogramPerimeter;whiteSpace=wrap;html=1;fixedSize=1;" vertex="1" parent="1">
          <mxGeometry x="450" y="-220" width="120" height="40" as="geometry" />
        </mxCell>
        <mxCell id="h1fyJHc6jPcogjjUTnC6-51" value="Yes" style="text;html=1;strokeColor=none;fillColor=none;align=center;verticalAlign=middle;whiteSpace=wrap;rounded=0;" vertex="1" parent="1">
          <mxGeometry x="255" y="-663" width="60" height="30" as="geometry" />
        </mxCell>
        <mxCell id="h1fyJHc6jPcogjjUTnC6-53" value="No" style="text;html=1;strokeColor=none;fillColor=none;align=center;verticalAlign=middle;whiteSpace=wrap;rounded=0;" vertex="1" parent="1">
          <mxGeometry x="362" y="-662" width="60" height="30" as="geometry" />
        </mxCell>
        <mxCell id="h1fyJHc6jPcogjjUTnC6-117" style="edgeStyle=orthogonalEdgeStyle;rounded=0;orthogonalLoop=1;jettySize=auto;html=1;exitX=0.5;exitY=1;exitDx=0;exitDy=0;entryX=0.5;entryY=0;entryDx=0;entryDy=0;" edge="1" parent="1" source="h1fyJHc6jPcogjjUTnC6-54" target="h1fyJHc6jPcogjjUTnC6-93">
          <mxGeometry relative="1" as="geometry" />
        </mxCell>
        <mxCell id="h1fyJHc6jPcogjjUTnC6-54" value="&lt;font style=&quot;font-size: 10px;&quot;&gt;Display Administrator Dashboard&lt;/font&gt;" style="shape=parallelogram;perimeter=parallelogramPerimeter;whiteSpace=wrap;html=1;fixedSize=1;" vertex="1" parent="1">
          <mxGeometry x="120" y="-550" width="120" height="40" as="geometry" />
        </mxCell>
        <mxCell id="h1fyJHc6jPcogjjUTnC6-56" value="Yes" style="text;html=1;strokeColor=none;fillColor=none;align=center;verticalAlign=middle;whiteSpace=wrap;rounded=0;" vertex="1" parent="1">
          <mxGeometry x="502" y="-605" width="60" height="30" as="geometry" />
        </mxCell>
        <mxCell id="h1fyJHc6jPcogjjUTnC6-64" style="edgeStyle=orthogonalEdgeStyle;rounded=0;orthogonalLoop=1;jettySize=auto;html=1;exitX=0.5;exitY=0;exitDx=0;exitDy=0;entryX=1;entryY=0.5;entryDx=0;entryDy=0;" edge="1" parent="1" source="h1fyJHc6jPcogjjUTnC6-59" target="h1fyJHc6jPcogjjUTnC6-61">
          <mxGeometry relative="1" as="geometry" />
        </mxCell>
        <mxCell id="h1fyJHc6jPcogjjUTnC6-59" value="Unauthorised Access" style="shape=parallelogram;perimeter=parallelogramPerimeter;whiteSpace=wrap;html=1;fixedSize=1;" vertex="1" parent="1">
          <mxGeometry x="460" y="-800" width="120" height="40" as="geometry" />
        </mxCell>
        <mxCell id="h1fyJHc6jPcogjjUTnC6-62" style="edgeStyle=orthogonalEdgeStyle;rounded=0;orthogonalLoop=1;jettySize=auto;html=1;exitX=0.5;exitY=1;exitDx=0;exitDy=0;entryX=0.5;entryY=0;entryDx=0;entryDy=0;entryPerimeter=0;" edge="1" parent="1" source="h1fyJHc6jPcogjjUTnC6-61" target="h1fyJHc6jPcogjjUTnC6-35">
          <mxGeometry relative="1" as="geometry" />
        </mxCell>
        <mxCell id="h1fyJHc6jPcogjjUTnC6-61" value="" style="ellipse;whiteSpace=wrap;html=1;aspect=fixed;" vertex="1" parent="1">
          <mxGeometry x="325" y="-840" width="30" height="30" as="geometry" />
        </mxCell>
        <mxCell id="h1fyJHc6jPcogjjUTnC6-66" value="No" style="text;html=1;strokeColor=none;fillColor=none;align=center;verticalAlign=middle;whiteSpace=wrap;rounded=0;" vertex="1" parent="1">
          <mxGeometry x="500" y="-704" width="60" height="30" as="geometry" />
        </mxCell>
        <mxCell id="h1fyJHc6jPcogjjUTnC6-72" value="No" style="text;html=1;strokeColor=none;fillColor=none;align=center;verticalAlign=middle;whiteSpace=wrap;rounded=0;" vertex="1" parent="1">
          <mxGeometry x="531" y="-395" width="60" height="30" as="geometry" />
        </mxCell>
        <mxCell id="h1fyJHc6jPcogjjUTnC6-111" style="edgeStyle=orthogonalEdgeStyle;rounded=0;orthogonalLoop=1;jettySize=auto;html=1;exitX=1;exitY=0.5;exitDx=0;exitDy=0;entryX=0.5;entryY=1;entryDx=0;entryDy=0;" edge="1" parent="1" source="h1fyJHc6jPcogjjUTnC6-73" target="h1fyJHc6jPcogjjUTnC6-106">
          <mxGeometry relative="1" as="geometry" />
        </mxCell>
        <mxCell id="h1fyJHc6jPcogjjUTnC6-120" style="edgeStyle=orthogonalEdgeStyle;rounded=0;orthogonalLoop=1;jettySize=auto;html=1;exitX=0;exitY=0.5;exitDx=0;exitDy=0;entryX=0.5;entryY=0;entryDx=0;entryDy=0;" edge="1" parent="1" source="h1fyJHc6jPcogjjUTnC6-73" target="h1fyJHc6jPcogjjUTnC6-83">
          <mxGeometry relative="1" as="geometry" />
        </mxCell>
        <mxCell id="h1fyJHc6jPcogjjUTnC6-73" value="&lt;font style=&quot;font-size: 10px;&quot;&gt;Is Technologist accessing their Laboratory ?&lt;/font&gt;" style="rhombus;whiteSpace=wrap;html=1;" vertex="1" parent="1">
          <mxGeometry x="470" y="-140" width="80" height="80" as="geometry" />
        </mxCell>
        <mxCell id="h1fyJHc6jPcogjjUTnC6-76" value="No" style="text;html=1;strokeColor=none;fillColor=none;align=center;verticalAlign=middle;whiteSpace=wrap;rounded=0;" vertex="1" parent="1">
          <mxGeometry x="530" y="-120" width="60" height="30" as="geometry" />
        </mxCell>
        <mxCell id="h1fyJHc6jPcogjjUTnC6-79" value="Yes" style="text;html=1;strokeColor=none;fillColor=none;align=center;verticalAlign=middle;whiteSpace=wrap;rounded=0;" vertex="1" parent="1">
          <mxGeometry x="490" y="-333" width="60" height="30" as="geometry" />
        </mxCell>
        <mxCell id="h1fyJHc6jPcogjjUTnC6-80" value="Yes" style="text;html=1;strokeColor=none;fillColor=none;align=center;verticalAlign=middle;whiteSpace=wrap;rounded=0;" vertex="1" parent="1">
          <mxGeometry x="427" y="-121" width="60" height="30" as="geometry" />
        </mxCell>
        <mxCell id="h1fyJHc6jPcogjjUTnC6-91" style="edgeStyle=orthogonalEdgeStyle;rounded=0;orthogonalLoop=1;jettySize=auto;html=1;exitX=0.5;exitY=1;exitDx=0;exitDy=0;entryX=0.5;entryY=0;entryDx=0;entryDy=0;" edge="1" parent="1" source="h1fyJHc6jPcogjjUTnC6-83" target="h1fyJHc6jPcogjjUTnC6-89">
          <mxGeometry relative="1" as="geometry" />
        </mxCell>
        <mxCell id="h1fyJHc6jPcogjjUTnC6-83" value="&lt;font style=&quot;font-size: 10px;&quot;&gt;View Equipment, Components and Assigned Items&lt;/font&gt;" style="shape=parallelogram;perimeter=parallelogramPerimeter;whiteSpace=wrap;html=1;fixedSize=1;" vertex="1" parent="1">
          <mxGeometry x="330" y="-20" width="120" height="40" as="geometry" />
        </mxCell>
        <mxCell id="h1fyJHc6jPcogjjUTnC6-87" value="&lt;font style=&quot;font-size: 10px;&quot;&gt;Stop&lt;/font&gt;" style="ellipse;whiteSpace=wrap;html=1;" vertex="1" parent="1">
          <mxGeometry x="325" y="120" width="120" height="60" as="geometry" />
        </mxCell>
        <mxCell id="h1fyJHc6jPcogjjUTnC6-90" style="edgeStyle=orthogonalEdgeStyle;rounded=0;orthogonalLoop=1;jettySize=auto;html=1;exitX=0.5;exitY=1;exitDx=0;exitDy=0;entryX=0.5;entryY=0;entryDx=0;entryDy=0;" edge="1" parent="1" source="h1fyJHc6jPcogjjUTnC6-89" target="h1fyJHc6jPcogjjUTnC6-87">
          <mxGeometry relative="1" as="geometry" />
        </mxCell>
        <mxCell id="h1fyJHc6jPcogjjUTnC6-89" value="" style="ellipse;whiteSpace=wrap;html=1;aspect=fixed;" vertex="1" parent="1">
          <mxGeometry x="370" y="50" width="30" height="30" as="geometry" />
        </mxCell>
        <mxCell id="h1fyJHc6jPcogjjUTnC6-118" style="edgeStyle=orthogonalEdgeStyle;rounded=0;orthogonalLoop=1;jettySize=auto;html=1;exitX=0.5;exitY=1;exitDx=0;exitDy=0;entryX=0.5;entryY=0;entryDx=0;entryDy=0;" edge="1" parent="1" source="h1fyJHc6jPcogjjUTnC6-93" target="h1fyJHc6jPcogjjUTnC6-116">
          <mxGeometry relative="1" as="geometry" />
        </mxCell>
        <mxCell id="h1fyJHc6jPcogjjUTnC6-93" value="View Laboratories" style="shape=parallelogram;perimeter=parallelogramPerimeter;whiteSpace=wrap;html=1;fixedSize=1;" vertex="1" parent="1">
          <mxGeometry x="120" y="-470" width="120" height="40" as="geometry" />
        </mxCell>
        <mxCell id="h1fyJHc6jPcogjjUTnC6-96" style="edgeStyle=orthogonalEdgeStyle;rounded=0;orthogonalLoop=1;jettySize=auto;html=1;exitX=0.5;exitY=1;exitDx=0;exitDy=0;entryX=0.5;entryY=0;entryDx=0;entryDy=0;" edge="1" parent="1" source="h1fyJHc6jPcogjjUTnC6-94" target="h1fyJHc6jPcogjjUTnC6-39">
          <mxGeometry relative="1" as="geometry" />
        </mxCell>
        <mxCell id="h1fyJHc6jPcogjjUTnC6-94" value="View Departments" style="shape=parallelogram;perimeter=parallelogramPerimeter;whiteSpace=wrap;html=1;fixedSize=1;" vertex="1" parent="1">
          <mxGeometry x="450" y="-500" width="120" height="40" as="geometry" />
        </mxCell>
        <mxCell id="h1fyJHc6jPcogjjUTnC6-99" style="edgeStyle=orthogonalEdgeStyle;rounded=0;orthogonalLoop=1;jettySize=auto;html=1;exitX=0.5;exitY=1;exitDx=0;exitDy=0;entryX=0.5;entryY=0;entryDx=0;entryDy=0;" edge="1" parent="1" source="h1fyJHc6jPcogjjUTnC6-97" target="h1fyJHc6jPcogjjUTnC6-47">
          <mxGeometry relative="1" as="geometry" />
        </mxCell>
        <mxCell id="h1fyJHc6jPcogjjUTnC6-97" value="" style="ellipse;whiteSpace=wrap;html=1;aspect=fixed;" vertex="1" parent="1">
          <mxGeometry x="495" y="-290" width="30" height="30" as="geometry" />
        </mxCell>
        <mxCell id="h1fyJHc6jPcogjjUTnC6-103" style="edgeStyle=orthogonalEdgeStyle;rounded=0;orthogonalLoop=1;jettySize=auto;html=1;exitX=0.5;exitY=1;exitDx=0;exitDy=0;entryX=0.578;entryY=0.021;entryDx=0;entryDy=0;entryPerimeter=0;" edge="1" parent="1" source="h1fyJHc6jPcogjjUTnC6-101" target="h1fyJHc6jPcogjjUTnC6-94">
          <mxGeometry relative="1" as="geometry" />
        </mxCell>
        <mxCell id="h1fyJHc6jPcogjjUTnC6-101" value="" style="ellipse;whiteSpace=wrap;html=1;aspect=fixed;" vertex="1" parent="1">
          <mxGeometry x="505" y="-560" width="30" height="30" as="geometry" />
        </mxCell>
        <mxCell id="h1fyJHc6jPcogjjUTnC6-115" style="edgeStyle=orthogonalEdgeStyle;rounded=0;orthogonalLoop=1;jettySize=auto;html=1;exitX=0.5;exitY=0;exitDx=0;exitDy=0;entryX=1;entryY=0.5;entryDx=0;entryDy=0;" edge="1" parent="1" source="h1fyJHc6jPcogjjUTnC6-105" target="h1fyJHc6jPcogjjUTnC6-101">
          <mxGeometry relative="1" as="geometry" />
        </mxCell>
        <mxCell id="h1fyJHc6jPcogjjUTnC6-105" value="Unauthorised Access" style="shape=parallelogram;perimeter=parallelogramPerimeter;whiteSpace=wrap;html=1;fixedSize=1;" vertex="1" parent="1">
          <mxGeometry x="600" y="-500" width="120" height="40" as="geometry" />
        </mxCell>
        <mxCell id="h1fyJHc6jPcogjjUTnC6-112" style="edgeStyle=orthogonalEdgeStyle;rounded=0;orthogonalLoop=1;jettySize=auto;html=1;exitX=0.5;exitY=0;exitDx=0;exitDy=0;entryX=1;entryY=0.5;entryDx=0;entryDy=0;" edge="1" parent="1" source="h1fyJHc6jPcogjjUTnC6-106" target="h1fyJHc6jPcogjjUTnC6-97">
          <mxGeometry relative="1" as="geometry" />
        </mxCell>
        <mxCell id="h1fyJHc6jPcogjjUTnC6-106" value="Unauthorised Access" style="shape=parallelogram;perimeter=parallelogramPerimeter;whiteSpace=wrap;html=1;fixedSize=1;" vertex="1" parent="1">
          <mxGeometry x="600" y="-220" width="120" height="40" as="geometry" />
        </mxCell>
        <mxCell id="h1fyJHc6jPcogjjUTnC6-119" style="edgeStyle=orthogonalEdgeStyle;rounded=0;orthogonalLoop=1;jettySize=auto;html=1;exitX=0.5;exitY=1;exitDx=0;exitDy=0;entryX=0;entryY=0.5;entryDx=0;entryDy=0;" edge="1" parent="1" source="h1fyJHc6jPcogjjUTnC6-116" target="h1fyJHc6jPcogjjUTnC6-89">
          <mxGeometry relative="1" as="geometry" />
        </mxCell>
        <mxCell id="h1fyJHc6jPcogjjUTnC6-116" value="&lt;font style=&quot;font-size: 10px;&quot;&gt;View Equipment, Components and Assigned Items&lt;/font&gt;" style="shape=parallelogram;perimeter=parallelogramPerimeter;whiteSpace=wrap;html=1;fixedSize=1;" vertex="1" parent="1">
          <mxGeometry x="110" y="-393" width="120" height="40" as="geometry" />
        </mxCell>
      </root>
    </mxGraphModel>
  </diagram>
</mxfile>
